<svg width="266" height="53" viewBox="0 0 266 53" fill="none" xmlns="http://www.w3.org/2000/svg">
<g clip-path="url(#clip0_308_53)">
<path d="M36.1604 37.0466L29.7267 43.5047L26.3961 46.848L16.6318 37.0466H23.2916L26.3961 40.1614L29.5007 37.0466H36.1604Z" fill="black"/>
<path d="M48.9484 16.5999C47.3191 16.5989 45.7205 16.1547 44.3226 15.3145C42.9247 14.4743 41.7798 13.2695 41.0097 11.8282L26.3973 26.4977L0 0V53.0015H8.19729V35.3882H23.6597L26.3958 38.1347L29.1318 35.3882H44.5942V53H52.7915V15.7342C51.5904 16.3056 50.2776 16.6014 48.9484 16.5999ZM8.19729 27.1614V19.8655L15.4609 27.1614H8.19729ZM44.5942 27.1614H37.3306L44.5942 19.8701V27.1614Z" fill="black"/>
<path d="M48.9487 15.0441C53.0706 15.0441 56.412 11.6899 56.412 7.55239C56.412 3.41482 53.0706 0.0606689 48.9487 0.0606689C44.8268 0.0606689 41.4854 3.41482 41.4854 7.55239C41.4854 11.6899 44.8268 15.0441 48.9487 15.0441Z" fill="black"/>
<path d="M135.943 33.4298C138.711 33.4298 140.955 31.1773 140.955 28.3986C140.955 25.6199 138.711 23.3673 135.943 23.3673C133.175 23.3673 130.931 25.6199 130.931 28.3986C130.931 31.1773 133.175 33.4298 135.943 33.4298Z" fill="black"/>
<path d="M87.4546 52.9627V35.3307L79.9169 44.2913H78.4428L71.0739 35.3727V52.9627H62.8193V23.3673H71.5369L79.2789 33.3863L87.021 23.3673H95.6921V52.9627H87.4546Z" fill="black"/>
<path d="M123.416 53.0001H115.161V41.7982H104.55V53.0001H96.2197V23.4109H104.558V34.6547H115.169V23.4109H123.424L123.416 53.0001Z" fill="black"/>
<path d="M135.943 34.2069C135.169 34.208 134.403 34.0526 133.691 33.75C132.978 33.4475 132.333 33.004 131.795 32.4459V52.9627H140.091V32.4459C139.553 33.004 138.908 33.4475 138.196 33.75C137.483 34.0526 136.717 34.208 135.943 34.2069Z" fill="black"/>
<path d="M164.814 23.3673L157.072 33.3863L149.33 23.3673H140.612V24.9496C141.348 25.948 141.746 27.1573 141.746 28.3993C141.746 29.6414 141.348 30.8507 140.612 31.8491V52.9627H148.865V35.3727L156.236 44.2913H157.691L165.229 35.3307V52.9627H173.485V23.3673H164.814Z" fill="black"/>
<path d="M201.276 52.4498V52.9627H192.095L185.231 43.3665H182.326V52.9627H173.988V23.3673H188.389C191.983 23.3673 194.79 24.3517 196.81 26.3205C198.83 28.2893 199.841 30.6989 199.842 33.5495C199.842 35.5504 199.386 37.2762 198.473 38.7269C197.561 40.1776 195.941 41.4267 193.614 42.4743L201.276 52.4498ZM188.39 30.0461H182.326V37.1477H188.475C189.513 37.1477 190.299 36.8166 190.833 36.1545C191.376 35.4636 191.659 34.603 191.632 33.7236C191.658 32.7859 191.36 31.8681 190.79 31.1248C190.229 30.4067 189.429 30.0472 188.39 30.0461Z" fill="black"/>
<path d="M227.763 52.9627L225.822 48.0962H212.642L210.709 52.9627H201.866L215.088 23.3719H223.511L236.692 52.9627H227.763ZM223.005 41.0847L219.258 31.6579L215.467 41.0847H223.005Z" fill="black"/>
<path d="M245.408 23.3673L257.874 39.5569C257.819 38.6844 257.734 36.6695 257.622 33.5122V23.3673H266.002V52.9627H258.927L246.631 37.0265L246.758 43.4939V52.9627H238.335V23.3673H245.408Z" fill="black"/>
<path d="M62.8193 0.0606689H72.1733C75.873 0.0606689 78.6998 1.06734 80.6539 3.08067C82.608 5.094 83.5846 7.6845 83.5835 10.8522C83.5835 14.0644 82.6122 16.7191 80.6694 18.8164C78.7267 20.9136 75.8946 21.9644 72.1733 21.9685H62.8193V0.0606689ZM68.9309 5.2256V16.7476H72.1733C74.0014 16.7476 75.3434 16.1777 76.1992 15.0379C77.0549 13.8981 77.4812 12.4847 77.4781 10.7978C77.4781 9.17093 77.0415 7.83527 76.1682 6.79078C75.2949 5.74629 73.9633 5.22456 72.1733 5.2256H68.9309Z" fill="black"/>
<path d="M102.016 16.7476V21.9747H84.5557V0.0606689H101.579V5.25669H90.6363V8.38549H100.956V13.4245H90.6363V16.7476H102.016Z" fill="black"/>
<path d="M102.802 0.0606689L121.923 8.28757V13.7432L102.799 21.9685V15.7777L108.511 13.5162L115.558 11.0293L108.514 8.50983L102.802 6.24833V0.0606689Z" fill="black"/>
</g>
<defs>
<clipPath id="clip0_308_53">
<rect width="266" height="53" fill="white"/>
</clipPath>
</defs>
</svg>
